<svg xmlns="http://www.w3.org/2000/svg" viewBox="0 0 1160 500" width="1160" height="500" role="img" aria-labelledby="t d">
  <title id="t">The RepoMesh delivery console</title>
  <desc id="d">The issue list: a left navigation rail and a flat list of issues, each row carrying its delivery phase as a badge rather than as a separate column.</desc>

  <style>
    text { font-family: "Segoe UI", "Helvetica Neue", Arial, sans-serif; }
    .mono { font-family: Consolas, "SF Mono", Menlo, monospace; }
  </style>

  <defs>
    <filter id="grain" x="0" y="0" width="100%" height="100%">
      <feTurbulence type="fractalNoise" baseFrequency="0.9" numOctaves="3" stitchTiles="stitch"/>
      <feColorMatrix type="saturate" values="0"/>
    </filter>
    <clipPath id="win"><rect x="1" y="1" width="1158" height="498" rx="2"/></clipPath>

    <g id="ic-issues" fill="none" stroke-width="1.3">
      <circle cx="7" cy="7" r="5.4"/><circle cx="7" cy="7" r="1.5" stroke="none"/>
    </g>
    <g id="ic-reviews" fill="none" stroke-width="1.3">
      <rect x="1.6" y="1.6" width="10.8" height="10.8" rx="1"/><path d="M4.3 7.1 L6.2 9.1 L9.8 4.9"/>
    </g>
    <g id="ic-repositories" fill="none" stroke-width="1.3">
      <rect x="1.6" y="2.2" width="10.8" height="3.9" rx="1"/><rect x="1.6" y="7.9" width="10.8" height="3.9" rx="1"/>
    </g>
    <g id="ic-teams" fill="none" stroke-width="1.3">
      <path d="M4.2 5.3 L9.8 5.3 M4.6 5.9 L6.6 9.4 M9.4 5.9 L7.4 9.4"/>
      <circle cx="3.4" cy="4.2" r="1.7"/><circle cx="10.6" cy="4.2" r="1.7"/><circle cx="7" cy="10.6" r="1.7"/>
    </g>
    <g id="ic-agents" fill="none" stroke-width="1.3">
      <path d="M7 1.4 L12.1 4.3 V9.7 L7 12.6 L1.9 9.7 V4.3 Z"/>
    </g>
    <g id="ic-observe" fill="none" stroke-width="1.3" stroke-linejoin="round">
      <path d="M1.4 8 H4.4 L6.1 4 L8.1 11.2 L9.7 8 H12.6"/>
    </g>
    <g id="ic-settings" fill="none" stroke-width="1.3">
      <path d="M1.8 4.7 H12.2 M1.8 9.6 H12.2"/>
      <circle cx="4.9" cy="4.7" r="1.6"/><circle cx="9.1" cy="9.6" r="1.6"/>
    </g>
  </defs>

        <rect x="0.5" y="0.5" width="1159" height="499" rx="2" fill="#16130d" stroke="#3b3323"/>
    <g clip-path="url(#win)">
    <rect x="1" y="1" width="1158" height="35" rx="0" fill="#131009"/>
    <rect x="18" y="14" width="9" height="9" rx="0" fill="#332c1e"/>
    <rect x="33" y="14" width="9" height="9" rx="0" fill="#332c1e"/>
    <rect x="48" y="14" width="9" height="9" rx="0" fill="#332c1e"/>
    <rect x="430" y="9" width="300" height="19" rx="2" fill="#1b1710" stroke="#2b2417"/>
    <text class="mono" x="580" y="22.5" font-size="11" fill="#6b6046" text-anchor="middle">127.0.0.1:5280 · delivery console</text>
    <path d="M1 36.5 H1159" stroke="#3b3323"/>
    <rect x="1" y="37" width="235" height="462" rx="0" fill="#131009"/>
    <path d="M236.5 37 V499" stroke="#3b3323"/>
    <rect x="18" y="54" width="32" height="32" rx="2" fill="#c99e52"/>
    <text class="mono" x="34" y="77" font-size="16" fill="#16120a" text-anchor="middle" font-weight="800">R</text>
    <text class="mono" x="60" y="70" font-size="13" fill="#e9dec2" font-weight="700" letter-spacing="1.9">REPOMESH</text>
    <text x="60" y="86" font-size="11.5" fill="#93876c">console-demo ▾</text>
    <rect x="18" y="104" width="200" height="30" rx="2" fill="#c99e52"/>
    <text x="118" y="124" font-size="12.5" fill="#191308" text-anchor="middle" font-weight="600">+ New issue</text>
    <rect x="18" y="152" width="200" height="31" rx="0" fill="#c99e52" opacity="0.1"/>
    <rect x="18" y="152" width="2" height="31" rx="0" fill="#c99e52"/>
    <use href="#ic-issues" x="31" y="160" stroke="#e3c078" fill="#e3c078"/>
    <text x="55" y="172" font-size="12.5" fill="#e3c078">Issues</text>
    <rect x="188" y="160" width="22" height="15" rx="2" fill="#3b3323"/>
    <text class="mono" x="199" y="171" font-size="10" fill="#93876c" text-anchor="middle">5</text>
    <use href="#ic-reviews" x="31" y="194" stroke="#c99e52"/>
    <text x="55" y="206" font-size="12.5" fill="#d8cdb2">Reviews</text>
    <rect x="188" y="194" width="22" height="15" rx="2" fill="#3b3323"/>
    <text class="mono" x="199" y="205" font-size="10" fill="#93876c" text-anchor="middle">1</text>
    <use href="#ic-repositories" x="31" y="228" stroke="#c99e52"/>
    <text x="55" y="240" font-size="12.5" fill="#d8cdb2">Repositories</text>
    <use href="#ic-teams" x="31" y="262" stroke="#c99e52"/>
    <text x="55" y="274" font-size="12.5" fill="#d8cdb2">Teams</text>
    <use href="#ic-agents" x="31" y="296" stroke="#c99e52"/>
    <text x="55" y="308" font-size="12.5" fill="#d8cdb2">Agents</text>
    <use href="#ic-observe" x="31" y="330" stroke="#c99e52"/>
    <text x="55" y="342" font-size="12.5" fill="#d8cdb2">Observe</text>
    <path d="M18 444.5 H218" stroke="#3b3323"/>
    <use href="#ic-settings" x="31" y="456" stroke="#c99e52"/>
    <text x="55" y="468" font-size="12.5" fill="#d8cdb2">Settings</text>
    <text x="268" y="78" font-size="19" fill="#e9dec2" font-weight="600">Issues</text>
    <text class="mono" x="1128" y="77" font-size="10" fill="#6b6046" text-anchor="end" font-weight="700" letter-spacing="1.5">SOURCE · LIVE</text>
    <text x="268" y="116" font-size="13" fill="#d8cdb2">Open</text>
    <rect x="308" y="104" width="22" height="15" rx="2" fill="#3b3323"/>
    <text class="mono" x="319" y="115" font-size="10" fill="#93876c" text-anchor="middle">5</text>
    <text x="354" y="116" font-size="13" fill="#93876c">Closed</text>
    <rect x="402" y="104" width="22" height="15" rx="2" fill="#3b3323"/>
    <text class="mono" x="413" y="115" font-size="10" fill="#93876c" text-anchor="middle">0</text>
    <rect x="1018" y="102" width="110" height="20" rx="2" fill="none" stroke="#3b3323"/>
    <text x="1073" y="116" font-size="11" fill="#93876c" text-anchor="middle">Pending decisions</text>
    <path d="M268 127.5 H1128" stroke="#3b3323"/>
    <rect x="266" y="126" width="68" height="2" rx="0" fill="#c99e52"/>
    <circle cx="276" cy="151" r="4" fill="#8aa0b4"/>
    <text x="294" y="154" font-size="14.5" fill="#d8cdb2">Record the reason for edits made during checkout</text>
    <text x="294" y="172" font-size="11.5" fill="#93876c">#13d3c372 · opened by console-demo-org-leader on Aug 16 · round 1 · 4 repos</text>
    <rect x="1008" y="142" width="120" height="19" rx="2" fill="none" stroke="#8aa0b4"/><text x="1068.0" y="155.5" font-size="11" fill="#8aa0b4" text-anchor="middle">Executing batch 1/3</text>
    <path d="M268 189.5 H1128" stroke="#201b12"/>
    <circle cx="276" cy="213" r="4" fill="#93876c"/>
    <text x="294" y="216" font-size="14.5" fill="#d8cdb2">Show the order summary when checkout completes</text>
    <text x="294" y="234" font-size="11.5" fill="#93876c">#7ff1d44d · opened by console-demo-org-leader on Aug 16 · round 0 · 4 repos</text>
    <rect x="959" y="204" width="169" height="19" rx="2" fill="none" stroke="#3b3323"/><text x="1043.5" y="217.5" font-size="11" fill="#93876c" text-anchor="middle">Plan v1 · awaiting materialize</text>
    <path d="M268 251.5 H1128" stroke="#201b12"/>
    <circle cx="276" cy="275" r="4" fill="#93876c"/>
    <text x="294" y="278" font-size="14.5" fill="#d8cdb2">Digest: merge email and in-app notices into one daily message</text>
    <text x="294" y="296" font-size="11.5" fill="#93876c">#fa89b322 · opened by console-demo-org-leader on Aug 16 · round 0 · 0 repos</text>
    <rect x="959" y="266" width="169" height="19" rx="2" fill="none" stroke="#3b3323"/><text x="1043.5" y="279.5" font-size="11" fill="#93876c" text-anchor="middle">Plan v1 · awaiting materialize</text>
    <path d="M268 313.5 H1128" stroke="#201b12"/>
    <circle cx="276" cy="337" r="4" fill="#c99e52"/>
    <text x="294" y="340" font-size="14.5" fill="#d8cdb2">Fix the rounding error in billing amounts</text>
    <text x="294" y="358" font-size="11.5" fill="#93876c">#e94499f9 · opened by console-demo-org-leader on Aug 16 · round 1 · 1 repo</text>
    <rect x="862" y="328" width="115" height="19" rx="2" fill="#c99e52"/><text x="919.5" y="341.5" font-size="11" fill="#191308" text-anchor="middle" font-weight="600">1 pending decision</text>
    <rect x="985" y="328" width="58" height="19" rx="2" fill="none" stroke="#c26d51"/><text x="1014.0" y="341.5" font-size="11" fill="#c26d51" text-anchor="middle">Paused</text>
    <rect x="1051" y="328" width="77" height="19" rx="2" fill="none" stroke="#c99e52"/><text x="1089.5" y="341.5" font-size="11" fill="#c99e52" text-anchor="middle">0/1 merged</text>
    <path d="M268 375.5 H1128" stroke="#201b12"/>
    <circle cx="276" cy="399" r="4" fill="#c99e52"/>
    <text x="294" y="402" font-size="14.5" fill="#d8cdb2">Free-shipping threshold on the checkout page</text>
    <text x="294" y="420" font-size="11.5" fill="#93876c">#9129f894 · opened by console-demo-org-leader on Aug 16 · round 1 · 1 repo</text>
    <rect x="1051" y="390" width="77" height="19" rx="2" fill="none" stroke="#c99e52"/><text x="1089.5" y="403.5" font-size="11" fill="#c99e52" text-anchor="middle">0/1 merged</text>
    <path d="M268 437.5 H1128" stroke="#201b12"/>
    <text class="mono" x="268" y="462" font-size="10.5" fill="#6b6046">5 of 5</text>
    <text class="mono" x="1128" y="478" font-size="10" fill="#6b6046" text-anchor="end">Illustrative · the console ships in Chinese; labels translated here</text>
    <rect x="1" y="1" width="1158" height="498" rx="0" filter="url(#grain)" opacity="0.03" pointer-events="none"/>
    </g>
</svg>
